<svg width="93" height="100" viewBox="0 0 93 100" fill="none" xmlns="http://www.w3.org/2000/svg">
<g clip-path="url(#clip0_3_18)">
<path d="M74.3645 18.2789H56.1504V0H37.4632V18.2789H19.249V37.0326H37.4632V55.3116H56.1504V37.0326H74.3645V18.2789Z" fill="#584696"/>
<path d="M74.3645 28.0786L54.8272 28.1973L50.8503 18.3383L50.6655 17.8635L50.6507 17.8116L50.6359 17.8635L50.4511 18.3754L44.5448 34.273L44.2491 35.0816C44.0791 34.9703 43.8869 34.911 43.6725 34.911C43.3103 34.911 42.9851 35.089 42.7855 35.3709L42.2902 34.6439L37.8549 28.0712H19.249V27.2255H38.3059L43.0072 34.184L43.4434 34.8294L43.7243 34.0653L49.6232 18.1602L49.7858 17.7374L49.9336 17.3516C49.9854 17.3887 50.0371 17.411 50.0889 17.4332C50.2219 17.4926 50.3698 17.5297 50.525 17.5297C50.7689 17.5297 50.9907 17.4555 51.1681 17.3071C51.2199 17.2626 51.2716 17.2255 51.316 17.1588L51.5008 17.6113L51.6634 18.0045L55.4186 27.3368L74.3793 27.2255L74.3645 28.0786Z" fill="white"/>
<path d="M44.5374 34.2804C44.2935 34.1543 44.0126 34.0727 43.7169 34.0653H43.6651C43.436 34.0653 43.2068 34.1098 42.9998 34.184C42.7263 34.2878 42.4824 34.451 42.2828 34.6513C41.9354 35 41.7284 35.4674 41.7284 36.0015C41.7284 37.0771 42.5933 37.9451 43.6577 37.9451C44.7296 37.9451 45.5945 37.0771 45.5945 36.0015C45.6019 35.2522 45.1657 34.592 44.5374 34.2804ZM43.6651 37.092C43.0738 37.092 42.5859 36.6024 42.5859 36.0015C42.5859 35.7715 42.6598 35.5564 42.7781 35.3783C42.9703 35.0964 43.2955 34.9184 43.6651 34.9184C43.8795 34.9184 44.0717 34.9777 44.2417 35.089C44.5448 35.2745 44.7518 35.6157 44.7518 36.0015C44.7518 36.6024 44.2565 37.092 43.6651 37.092Z" fill="white"/>
<path d="M50.5028 14.4955C49.431 14.4955 48.5661 15.3635 48.5661 16.4317C48.5661 17.181 48.9874 17.8264 49.6084 18.1528C49.6601 18.1751 49.7119 18.2047 49.771 18.227C49.9854 18.3086 50.2071 18.3605 50.4437 18.3754H50.5028C50.5472 18.3754 50.5841 18.3754 50.6285 18.3679H50.6654C50.7246 18.3605 50.7911 18.3531 50.8503 18.3457C51.0794 18.3012 51.2938 18.227 51.4786 18.1157C51.5377 18.0786 51.5895 18.049 51.6412 18.0044C52.1143 17.6484 52.4322 17.0846 52.4322 16.4392C52.4322 15.3709 51.5673 14.4955 50.5028 14.4955ZM51.1533 17.2997C50.9759 17.4481 50.7542 17.5223 50.5102 17.5223C50.355 17.5223 50.2145 17.4852 50.0741 17.4258C50.0223 17.4036 49.9706 17.3739 49.9188 17.3442C49.6232 17.1587 49.4162 16.8175 49.4162 16.4317C49.4162 15.8383 49.9041 15.3487 50.5028 15.3487C51.0942 15.3487 51.5821 15.8383 51.5821 16.4317C51.5821 16.7211 51.4712 16.9807 51.2938 17.1587C51.2494 17.2181 51.1977 17.2626 51.1533 17.2997Z" fill="white"/>
<path d="M0 73.4644H3.52603L11.4578 89.0059L19.3895 73.4644H22.9155V95.5786H19.3895V80.6009L12.4631 93.9985H10.482L3.52603 80.6009V95.5786H0V73.4644Z" fill="#584696"/>
<path d="M28.2378 73.4644H31.8599V89.5772L43.0072 73.4644H46.3115V95.5786H42.6894V79.4659L31.579 95.5786H28.2378V73.4644Z" fill="#584696"/>
<path d="M56.9783 73.4644H60.1569L53.674 95.5786H49.8301L56.9783 73.4644ZM55.1525 88.5979H63.5868L64.7548 91.4095H54.0215L55.1525 88.5979ZM58.6785 73.4644H61.8571L69.0052 95.5786H65.1614L58.6785 73.4644Z" fill="#584696"/>
<path d="M73.0339 73.4347H76.6561V92.5816H85.2161V73.4347H88.8382V92.5816C89.6366 92.5816 90.2945 92.6484 90.8193 92.7745C91.3442 92.9006 91.7655 93.1973 92.0982 93.6573C92.4234 94.1172 92.6526 94.8516 92.793 95.8531C92.9261 96.8546 93 98.2418 93 100.007H89.9766C89.9766 98.9763 89.9618 98.1306 89.9471 97.4777C89.9249 96.8249 89.7844 96.3427 89.5183 96.0386C89.2522 95.7344 88.7495 95.5786 87.9882 95.5786H73.0339V73.4347Z" fill="#584696"/>
</g>
<defs>
<clipPath id="clip0_3_18">
<rect width="93" height="100" fill="white"/>
</clipPath>
</defs>
</svg>
